# AST/ASF file generated using VICON BodyLanguage
# -----------------------------------------------
:version 1.10
:name VICON
:units
  mass 1.0
  length 0.45
  angle deg
:documentation
   .ast/.asf automatically generated from VICON data using
   VICON BodyBuilder and BodyLanguage model FoxedUp or BRILLIANT.MOD
:root
   order TX TY TZ RX RY RZ
   axis XYZ
   position 0 0 0  
   orientation 0 0 0 
:bonedata
  begin
     id 1 
     name lhipjoint
     direction 0.567149 -0.783011 0.255413 
     length 2.28399 
     axis 0 0 0  XYZ
  end
  begin
     id 2 
     name lfemur
     direction 0.34202 -0.939693 0  
     length 7.34031  
     axis 0 0 20  XYZ
    dof rx ry rz
    limits (-160.0 20.0)
           (-70.0 70.0)
           (-60.0 70.0)
  end
  begin
     id 3 
     name ltibia
     direction 0.34202 -0.939693 0   
     length 6.9833   
     axis 0 0 20   XYZ
    dof rx
    limits (-10.0 170.0)
  end
  begin
     id 4 
     name lfoot
     direction 0.136498 -0.375025 0.91691   
     length 2.33665   
     axis -90 7.62852e-016 20   XYZ
    dof rx rz
    limits (-45.0 90.0)
           (-70.0 20.0)
  end
  begin
     id 5 
     name ltoes
     direction 1.5367e-011 -4.21617e-011 1   
     length 1.15039   
     axis -90 7.62852e-016 20   XYZ
    dof rx
    limits (-90.0 20.0)
  end
  begin
     id 6 
     name rhipjoint
     direction -0.602854 -0.758518 0.247423   
     length 2.35775  
     axis 0 0 0  XYZ 
  end
  begin
     id 7 
     name rfemur
     direction -0.34202 -0.939693 0   
     length 7.43932   
     axis 0 0 -20   XYZ
    dof rx ry rz
    limits (-160.0 20.0)
           (-70.0 70.0)
           (-70.0 60.0)
  end
  begin
     id 8 
     name rtibia
     direction -0.34202 -0.939693 0   
     length 7.11893   
     axis 0 0 -20   XYZ
    dof rx
    limits (-10.0 170.0)
 end
 begin
     id 9 
     name rfoot
     direction -0.131771 -0.362037 0.922803   
     length 2.53019  
     axis -90 -7.62852e-016 -20   XYZ
    dof rx rz
    limits (-45.0 90.0)
           (-20.0 70.0)
  end
  begin
     id 10 
     name rtoes
     direction -1.53733e-011 -4.21932e-011 1   
     length 1.24596   
     axis -90 -7.62852e-016 -20   XYZ
    dof rx
    limits (-90.0 20.0)
  end
  begin
     id 11 
     name lowerback
     direction 0.0235427 0.999023 -0.0374125   
     length 2.21768   
     axis 0 0 0   XYZ
    dof rx ry rz
    limits (-20.0 45.0)
           (-30.0 30.0)
           (-30.0 30.0)
  end
  begin
     id 12 
     name upperback
     direction 0.0302156 0.996818 -0.073759   
     length 2.20352   
     axis 0 0 0   XYZ
    dof rx ry rz
    limits (-20.0 45.0)
           (-30.0 30.0)
           (-30.0 30.0)
  end
  begin
     id 13 
     name thorax
     direction 0.0187169 0.998235 -0.0563532   
     length 2.22103   
     axis 0 0 0   XYZ
    dof rx ry rz
    limits (-20.0 45.0)
           (-30.0 30.0)
           (-30.0 30.0)
  end
  begin
     id 14 
     name lowerneck
     direction -0.119528 0.987423 0.103481   
     length 1.72948   
     axis 0 0 0   XYZ
    dof rx ry rz
    limits (-20.0 45.0)
           (-30.0 30.0)
           (-30.0 30.0)
  end
  begin
     id 15 
     name upperneck
     direction 0.248049 0.963095 -0.104496   
     length 1.74979   
     axis 0 0 0   XYZ
    dof rx ry rz
    limits (-20.0 45.0)
           (-30.0 30.0)
           (-30.0 30.0)
  end
  begin
     id 16
     name head
     direction 0.0903589 0.994284 -0.056876  
     length 1.78268  
     axis 0 0 0   XYZ
    dof rx ry rz
    limits (-20.0 45.0)
           (-30.0 30.0)
           (-30.0 30.0)
  end
  begin
     id 17 
     name lclavicle
     direction 0.946008 0.242039 -0.215608  
     length 3.80783  
     axis 0 0 0   XYZ
    dof ry rz
    limits (-20.0 10.0)
           (0.0 20.0)
  end
  begin
     id 18 
     name lhumerus
     direction 1 -4.48991e-011 -2.25695e-027   
     length 4.83125   
     axis 180 -30 -90   XYZ
    dof rx ry rz
    limits (-60.0 90.0)
           (-90.0 90.0)
           (-90.0 90.0)
  end
  begin
     id 19
     name lradius
     direction 0.999991 0.00366712 -0.00211721   
     length 3.00391   
     axis 180 -30 -90   XYZ
    dof rx
    limits (-10.0 170.0)
  end
  begin
     id 20
     name lwrist
     direction 0.999991 0.00393016 -0.00141978   
     length 1.50195   
     axis -1.00488e-014 90 90   XYZ
    dof ry
    limits (-180.0 0.0)
 end
  begin
     id 21 
     name lhand
     direction 1 -4.49123e-011 2.72098e-026   
     length 1.2717   
     axis -1.73687e-014 90 90   XYZ
    dof rx rz
    limits (-90.0 90.0)
           (-45.0 45.0)
  end
  begin
     id 22 
     name lfingers
     direction 1 -4.48678e-011 5.4479e-026   
     length 1.02528   
     axis -3.47372e-014 90 90   XYZ
    dof rx
    limits (0.0 90.0)
  end
  begin
     id 23
     name lthumb
     direction 0.707107 -6.34851e-011 0.707107   
     length 1.4721   
     axis -90 45 -1.62303e-014   XYZ
    dof rx rz
    limits (-45.0 45.0)
           (-45.0 45.0)
  end
  begin
     id 24 
     name rclavicle
     direction -0.981723 0.189447 -0.0181673   
     length 3.74989  
     axis 0 0 0   XYZ 
    dof ry rz
    limits (-10.0 20.0)
           (-20.0 0.0)
  end
  begin
     id 25 
     name rhumerus
     direction -1 -4.48985e-011 2.38206e-027  
     length 4.61118   
     axis 180 30 90   XYZ
    dof rx ry rz
    limits (-90.0 60.0)
           (-90.0 90.0)
           (-90.0 90.0)
  end
  begin
     id 26 
     name rradius
     direction -1 -4.48977e-011 7.41019e-027   
     length 2.91491   
     axis 180 30 90   XYZ
    dof rx
    limits (-10.0 170.0)
  end
  begin
     id 27 
     name rwrist
     direction -1 -4.48549e-011 1.3624e-026   
     length 1.45745   
     axis -1.00488e-014 -90 -90   XYZ
    dof ry
    limits (-180.0 0.0)
  end
  begin
     id 28
     name rhand
     direction -1 -4.49107e-011 2.72109e-026   
     length 1.30769   
     axis -1.73687e-014 -90 -90   XYZ
    dof rx rz
    limits (-90.0 90.0)
           (-45.0 45.0)
  end
  begin
     id 29
     name rfingers
     direction -1 -4.48919e-011 5.44468e-026   
     length 1.05429   
     axis -3.47372e-014 -90 -90   XYZ
    dof rx
    limits (0.0 90.0)
  end
  begin
     id 30
     name rthumb
     direction -0.707107 -6.35315e-011 0.707107   
     length 1.51376   
     axis -90 -45 1.62303e-014   XYZ
    dof rx rz
    limits (-45.0 45.0)
           (-45.0 45.0)
  end
:hierarchy
  begin
    root lhipjoint rhipjoint lowerback
    lhipjoint lfemur
    lfemur ltibia
    ltibia lfoot
    lfoot ltoes
    rhipjoint rfemur
    rfemur rtibia
    rtibia rfoot
    rfoot rtoes
    lowerback upperback
    upperback thorax
    thorax lowerneck lclavicle rclavicle
    lowerneck upperneck
    upperneck head
    lclavicle lhumerus
    lhumerus lradius
    lradius lwrist
    lwrist lhand lthumb
    lhand lfingers
    rclavicle rhumerus
    rhumerus rradius
    rradius rwrist
    rwrist rhand rthumb
    rhand rfingers
  end

#!OML:ASF X:\für Bonn\!DataBase\2005_08_11_Bastian_Final\c3d\Bastian.ASF
:FULLY-SPECIFIED
:DEGREES
1
root -24.6803 17.7217 -26.9519 175.247 130.236 -549.49
lowerback -0.25071 -0.0184495 0.535696
upperback 3.965 -0.0572824 1.43742
thorax 4.22334 -0.0240753 1.18056
lowerneck -2.98581 -1.16858 -6.61553
upperneck 0.234345 -1.41861 9.21823
head 0.739104 -0.630878 4.19591
rclavicle 2.00773e-014 -1.39149e-014
rhumerus -38.4931 7.43709 -94.7097
rradius 49.5914
rwrist 0.36594
rhand -8.38083 5.32231
rfingers 7.12502
rthumb 17.5424 -23.9062
lclavicle 2.00773e-014 -1.39149e-014
lhumerus -32.8807 21.1153 71.9267
lradius 29.9076
lwrist 166.146
lhand -20.1762 4.52064
lfingers 7.12502
lthumb 6.16972 34.4108
rfemur -17.643 1.13489 26.0565
rtibia 40.4945
rfoot -21.1824 -5.15033
rtoes -11.9859
lfemur -5.68284 5.90319 -16.4925
ltibia 27.8078
lfoot -19.8785 -4.27686
ltoes -14.6914
2
root -24.666 17.7225 -26.93 175.288 130.389 -549.459
lowerback -0.115006 -0.0613031 0.432767
upperback 3.93912 -0.109489 1.42242
thorax 4.1204 -0.0533777 1.22041
lowerneck -2.9276 -1.11572 -6.56048
upperneck 0.178201 -1.34842 9.16188
head 0.702861 -0.597979 4.16577
rclavicle -1.01977e-013 8.34896e-015
rhumerus -38.8305 7.79436 -94.8249
rradius 50.4063
rwrist 0.375327
rhand -8.22956 5.47765
rfingers 7.12502
rthumb 17.6879 -23.7378
lclavicle -1.01977e-013 8.34896e-015
lhumerus -32.918 21.0177 71.8982
lradius 30.0341
lwrist 166.216
lhand -20.2065 4.46107
lfingers 7.12502
lthumb 6.14045 34.3521
rfemur -17.947 0.997337 25.9919
rtibia 40.9404
rfoot -21.2955 -5.01911
rtoes -11.5648
lfemur -5.48676 5.72673 -16.4995
ltibia 27.6566
lfoot -20.0977 -3.95397
ltoes -15.42
3
root -24.6496 17.7229 -26.9062 175.322 130.513 -549.433
lowerback 0.010456 -0.111319 0.345924
upperback 3.92608 -0.172384 1.4168
thorax 4.03708 -0.087499 1.26088
lowerneck -2.9202 -1.07118 -6.57012
upperneck 0.122589 -1.28511 9.13084
head 0.677677 -0.567281 4.15755
rclavicle 1.51573e-013 2.38542e-015
rhumerus -39.1368 8.23257 -94.9126
rradius 51.2318
rwrist 0.290739
rhand -8.04481 5.65704
rfingers 7.12502
rthumb 17.8657 -23.5423
lclavicle 1.51573e-013 2.38542e-015
lhumerus -32.9361 20.9388 71.8893
lradius 30.1692
lwrist 166.355
lhand -20.2121 4.46938
lfingers 7.12502
lthumb 6.13501 34.3606
rfemur -18.2681 0.767775 25.9207
rtibia 41.4001
rfoot -21.3896 -4.88694
rtoes -11.1897
lfemur -5.28231 5.57376 -16.4904
ltibia 27.5027
lfoot -20.2991 -3.75451
ltoes -15.7331
4
root -24.6303 17.7225 -26.8812 175.391 130.618 -549.372
lowerback 0.146458 -0.162802 0.287864
upperback 3.9078 -0.237209 1.38622
thorax 3.94233 -0.121089 1.25966
lowerneck -3.01086 -1.03734 -6.63096
upperneck 0.148293 -1.23491 9.1397
head 0.698641 -0.540087 4.17391
rclavicle -3.67752e-014 1.66979e-014
rhumerus -39.5066 8.6806 -95.0183
rradius 52.1902
rwrist 0.199154
rhand -7.82216 5.79582
rfingers 7.12502
rthumb 18.0799 -23.3839
lclavicle -3.67752e-014 1.66979e-014
lhumerus -32.9108 20.6831 71.9467
lradius 30.3319
lwrist 166.636
lhand -20.1213 4.47923
lfingers 7.12502
lthumb 6.22275 34.3678
rfemur -18.6188 0.434487 25.8242
rtibia 41.8774
rfoot -21.4473 -4.76972
rtoes -11.2306
lfemur -5.07579 5.42769 -16.5175
ltibia 27.3368
lfoot -20.4852 -3.55035
ltoes -16.2207
5
root -24.61 17.7219 -26.854 175.361 130.731 -549.393
lowerback 0.329215 -0.211024 0.299855
upperback 3.90798 -0.299082 1.37834
thorax 3.84013 -0.15104 1.24312
lowerneck -3.21162 -1.00881 -6.76541
upperneck 0.228741 -1.18712 9.17669
head 0.758509 -0.511196 4.2155
rclavicle -4.44284e-014 1.51076e-014
rhumerus -39.913 9.25744 -95.1221
rradius 53.2506
rwrist -0.0309395
rhand -7.62171 5.90522
rfingers 7.12502
rthumb 18.2728 -23.2565
lclavicle -4.44284e-014 1.51076e-014
lhumerus -32.8558 20.3321 72.0876
lradius 30.5362
lwrist 167.077
lhand -20.0098 4.48387
lfingers 7.12502
lthumb 6.33038 34.3693
rfemur -18.954 0.0557169 25.786
rtibia 42.366
rfoot -21.5146 -4.62457
rtoes -11.2901
lfemur -4.81612 5.35956 -16.4675
ltibia 27.1697
lfoot -20.6584 -3.41169
ltoes -16.6931
6
root -24.5884 17.721 -26.8255 175.395 130.793 -549.343
lowerback 0.506363 -0.260166 0.267286
upperback 3.90043 -0.360851 1.34552
thorax 3.73319 -0.182064 1.22619
lowerneck -3.39761 -0.995503 -6.85345
upperneck 0.305034 -1.16118 9.18525
head 0.815557 -0.493802 4.23731
rclavicle -2.24627e-014 8.34896e-015
rhumerus -40.3296 9.74924 -95.2076
rradius 54.3395
rwrist -0.21455
rhand -7.39818 6.04539
rfingers 7.12502
rthumb 18.4878 -23.0961
lclavicle -2.24627e-014 8.34896e-015
lhumerus -32.7636 19.8895 72.2606
lradius 30.7547
lwrist 167.528
lhand -19.9245 4.49797
lfingers 7.12502
lthumb 6.41266 34.3809
rfemur -19.32 -0.318064 25.6974
rtibia 42.8752
rfoot -21.5608 -4.54824
rtoes -11.6197
lfemur -4.57302 5.32382 -16.4642
ltibia 27.0089
lfoot -20.8232 -3.34199
ltoes -17.2659
7
root -24.5665 17.7193 -26.7955 175.398 130.881 -549.366
lowerback 0.664269 -0.301202 0.274578
upperback 3.88779 -0.413155 1.32692
thorax 3.63157 -0.20734 1.20207
lowerneck -3.63119 -0.986879 -6.93001
upperneck 0.424088 -1.14173 9.2061
head 0.895817 -0.478169 4.2616
rclavicle -1.17283e-014 -7.95139e-016
rhumerus -40.7626 10.3016 -95.2989
rradius 55.4558
rwrist -0.441965
rhand -7.25581 6.23941
rfingers 7.12502
rthumb 18.6248 -22.889
lclavicle -1.17283e-014 -7.95139e-016
lhumerus -32.7002 19.3157 72.4989
lradius 31.0606
lwrist 168.123
lhand -19.7613 4.52556
lfingers 7.12502
lthumb 6.57025 34.4036
rfemur -19.7329 -0.611745 25.6698
rtibia 43.3898
rfoot -21.5562 -4.48172
rtoes -11.8105
lfemur -4.35895 5.3097 -16.4038
ltibia 26.8671
lfoot -20.9964 -3.29808
ltoes -17.5526
